<?xml version="1.0" standalone="no"?>
<!DOCTYPE svg PUBLIC "-//W3C//DTD SVG 20010904//EN"
 "http://www.w3.org/TR/2001/REC-SVG-20010904/DTD/svg10.dtd">
<svg version="1.0" xmlns="http://www.w3.org/2000/svg"
 width="300.000000pt" height="300.000000pt" viewBox="0 0 300.000000 300.000000"
 preserveAspectRatio="xMidYMid meet">
<metadata>
Created by potrace 1.14, written by Peter Selinger 2001-2017
</metadata>
<g transform="translate(0.000000,300.000000) scale(0.100000,-0.100000)"
fill="#000000" stroke="none">
<path d="M845 2830 c-154 -3 -275 -8 -270 -11 13 -9 108 -32 285 -70 359 -77
356 -77 475 -86 112 -10 376 -9 465 1 157 16 363 21 473 11 38 -4 104 -2 152
5 l85 12 0 74 0 74 -692 -3 c-381 -1 -819 -4 -973 -7z"/>
<path d="M515 2780 c3 -5 11 -10 16 -10 6 0 7 5 4 10 -3 6 -11 10 -16 10 -6 0
-7 -4 -4 -10z"/>
<path d="M514 2638 l1 -53 45 3 c25 1 90 14 145 27 69 17 137 26 220 29 178 6
172 5 155 15 -19 12 -131 24 -195 23 -133 -4 -293 -3 -330 2 l-41 6 0 -52z"/>
<path d="M2471 2616 c-14 -17 -5 -43 20 -57 17 -9 19 -6 19 31 0 42 -17 53
-39 26z"/>
<path d="M1351 2579 c-13 -5 -74 -22 -135 -38 -109 -29 -163 -36 -341 -46 -49
-3 -121 -8 -160 -11 -38 -3 -99 -7 -135 -8 l-65 -1 0 -55 c0 -54 0 -55 30 -56
17 -1 56 3 89 8 32 5 95 11 140 13 44 2 104 7 131 10 96 12 121 14 185 20 123
12 276 50 460 117 67 24 83 42 40 44 -176 10 -219 11 -239 3z"/>
<path d="M1917 2503 c-1 0 -31 -4 -67 -8 -36 -3 -72 -8 -80 -10 -8 -2 -40 -7
-70 -10 -30 -4 -122 -20 -205 -36 -82 -17 -199 -39 -260 -50 -60 -10 -121 -21
-135 -24 -14 -3 -36 -7 -50 -10 -14 -3 -36 -7 -50 -10 -14 -3 -41 -8 -60 -11
-33 -4 -51 -8 -110 -19 -14 -3 -50 -9 -80 -15 -64 -11 -74 -13 -162 -35 -38
-10 -68 -20 -69 -24 -7 -38 -3 -111 5 -114 6 -2 226 -3 489 -3 262 1 477 -3
477 -7 0 -5 -20 -33 -45 -64 -25 -30 -45 -58 -45 -63 0 -27 442 -44 700 -27
47 3 111 6 142 6 l56 1 46 58 c25 31 46 60 46 63 0 3 -66 6 -147 7 -166 3
-315 10 -353 17 -14 2 -50 7 -80 10 -60 7 -87 11 -170 25 -71 12 -168 18 -424
26 -115 3 -230 7 -255 9 -25 2 -59 4 -76 5 -26 1 -28 2 -9 10 19 8 69 14 204
25 33 3 86 7 118 10 69 6 157 12 278 20 50 4 102 8 115 9 91 11 147 19 164 23
88 17 125 24 155 29 19 3 40 7 47 9 50 17 182 22 368 16 33 -2 88 -2 123 -2
l62 1 0 65 c0 64 0 65 -27 66 -16 0 -35 2 -44 4 -8 1 -42 6 -75 9 -32 4 -93
11 -134 16 -59 8 -305 10 -313 3z"/>
<path d="M2500 2297 c-3 -3 -49 -7 -103 -11 -54 -3 -101 -7 -105 -10 -4 -2
-36 -7 -72 -11 -36 -4 -67 -8 -70 -10 -3 -2 -29 -6 -59 -10 -30 -4 -62 -8 -73
-10 -10 -2 -46 -5 -79 -6 -72 -3 -85 -15 -27 -24 63 -11 73 -13 188 -37 72
-15 141 -22 220 -22 l115 -1 38 47 c29 37 38 55 35 79 -2 17 -5 29 -8 26z"/>
<path d="M1988 1916 c-6 -6 -340 -19 -505 -20 l-161 -1 -61 -79 c-33 -44 -59
-81 -57 -83 5 -6 321 -14 625 -17 256 -2 265 -2 282 18 33 38 118 150 116 153
-5 5 -66 13 -137 19 -41 3 -80 7 -87 9 -6 2 -13 2 -15 1z"/>
<path d="M2019 1646 c-5 -5 -58 -16 -144 -30 -117 -19 -170 -26 -240 -31 -44
-3 -96 -8 -115 -10 -19 -2 -64 -7 -100 -10 -36 -4 -81 -8 -100 -10 -19 -2 -89
-7 -154 -10 -114 -6 -120 -8 -140 -33 -12 -15 -45 -57 -75 -95 l-54 -69 104 6
c57 4 115 9 129 11 14 2 54 7 90 11 36 3 67 7 70 9 3 2 34 6 70 10 36 4 68 9
71 11 5 3 57 12 174 31 17 2 86 18 154 34 68 16 135 31 149 34 14 2 28 8 32
12 69 84 91 115 88 124 -2 5 -6 8 -9 5z"/>
<path d="M1096 1606 c-9 -14 -16 -27 -16 -29 0 -2 30 -5 68 -6 37 -1 79 -3 94
-5 14 -2 32 0 39 5 11 6 -46 27 -152 55 -10 3 -23 -6 -33 -20z"/>
<path d="M1735 1343 c-11 -2 -54 -10 -95 -18 -73 -14 -94 -16 -290 -31 -52 -4
-106 -8 -120 -10 -14 -1 -46 -2 -72 -3 -57 -1 -62 -16 -19 -60 52 -53 187 -71
449 -61 l73 3 55 71 c30 39 64 81 75 94 l21 22 -28 -1 c-16 -1 -38 -3 -49 -6z"/>
<path d="M805 1226 c-5 -8 -36 -49 -69 -91 -32 -42 -56 -78 -55 -79 4 -3 149
-22 244 -31 114 -12 145 -17 255 -45 114 -29 131 -32 241 -45 l56 -7 59 77
c33 43 65 83 71 90 11 11 -19 14 -165 17 -167 4 -182 6 -277 37 -264 86 -342
103 -360 77z"/>
<path d="M518 861 c-33 -42 -38 -56 -38 -101 l0 -52 63 7 c87 9 170 29 264 63
96 35 125 40 258 47 55 3 127 8 160 12 33 4 63 7 67 7 19 2 17 16 -3 20 -68
15 -115 18 -351 21 -141 2 -283 9 -314 14 -32 6 -60 11 -63 11 -3 -1 -23 -23
-43 -49z"/>
<path d="M1790 863 c-52 -7 -171 -27 -265 -44 -259 -47 -317 -57 -355 -64 -19
-3 -91 -17 -160 -31 -69 -14 -132 -27 -140 -28 -8 -2 -33 -6 -55 -10 -22 -3
-106 -21 -187 -38 l-148 -31 0 -83 c0 -91 -2 -89 78 -100 26 -3 50 -8 55 -11
4 -2 85 -6 180 -9 216 -5 288 -10 407 -28 52 -8 113 -18 135 -21 22 -4 51 -8
65 -10 119 -20 363 -24 855 -15 110 3 213 1 228 -3 l28 -8 -3 68 -3 67 -50 2
c-27 2 -158 5 -290 8 -132 3 -256 8 -275 11 -190 30 -241 37 -275 41 -22 2
-56 6 -75 9 -44 5 -221 13 -460 20 -102 3 -193 7 -202 8 -26 4 -34 17 -12 18
10 0 33 2 49 4 17 1 64 6 105 9 41 4 95 9 120 11 68 6 176 15 260 20 187 13
302 27 460 60 14 3 45 8 70 11 25 3 47 7 50 9 9 6 115 18 145 18 17 -1 105 -3
196 -6 91 -3 171 -2 178 2 8 5 11 28 9 66 l-3 58 -40 3 c-68 4 -153 14 -202
24 -70 13 -363 9 -473 -7z"/>
<path d="M2415 649 c-82 -8 -211 -24 -265 -34 -27 -5 -78 -11 -185 -20 -38 -3
-71 -8 -73 -10 -6 -5 64 -23 118 -30 25 -3 83 -14 130 -24 85 -19 318 -29 353
-15 14 5 17 19 17 73 0 48 -4 68 -12 67 -7 0 -44 -3 -83 -7z"/>
<path d="M957 254 c-1 -1 -67 -4 -147 -8 -196 -9 -302 -16 -318 -21 -8 -3 -12
-17 -10 -37 l3 -33 1013 0 1012 0 0 27 0 27 -323 1 c-178 0 -332 2 -342 4 -11
2 -60 7 -108 11 -48 3 -97 8 -108 10 -57 11 -208 18 -427 19 -134 1 -244 1
-245 0z"/>
</g>
</svg>
